<svg width="41" height="41" viewBox="0 0 41 41" fill="none" xmlns="http://www.w3.org/2000/svg">
<g clip-path="url(#clip0_173_269)">
<path d="M11.4918 11.2353C11.4476 11.267 11.4038 11.2991 11.36 11.3311C11.2693 11.3974 11.1838 11.46 11.1039 11.5126C11.0914 11.5209 11.079 11.5294 11.0668 11.5381C8.97003 13.0366 7.23994 15.034 6.06335 17.3152C4.86779 19.6355 4.2616 22.1254 4.2616 24.7155C4.2616 26.035 4.43881 27.3933 4.78835 28.7529C6.63295 35.9192 13.094 40.9243 20.5004 40.9243C29.454 40.9243 36.7382 33.6531 36.7382 24.7155C36.7382 -0.511284 20.5679 4.75245 11.4918 11.2353Z" fill="#FEA827"/>
<ellipse cx="19.2941" cy="24.0732" rx="4.82353" ry="4.81464" fill="white"/>
</g>
<defs>
<clipPath id="clip0_173_269">
<rect width="41" height="40.9244" fill="white"/>
</clipPath>
</defs>
</svg>
